<svg xmlns="http://www.w3.org/2000/svg" xmlns:xlink="http://www.w3.org/1999/xlink" version="1.1" x="0px" y="0px" width="100px" height="100px" viewBox="0 0 100 100" enable-background="new 0 0 100 100" xml:space="preserve">
<g id="Captions">
</g>
<g id="Your_Icon">
	<path fill="#000000" d="M93.144,24.877C90.647,22.375,87.324,21,83.793,21c-3.528,0-6.845,1.37-9.342,3.866L50.089,49.231   L25.724,24.866C23.229,22.375,19.91,21,16.384,21s-6.845,1.375-9.337,3.866c-5.153,5.149-5.153,13.534,0,18.687l33.542,33.536   c2.486,2.503,5.807,3.878,9.349,3.878h0.301c3.529,0,6.842-1.369,9.329-3.86l33.556-33.55C95.623,41.061,97,37.74,97,34.208   C97,30.675,95.623,27.356,93.144,24.877z"/>
</g>
</svg>